<?xml version="1.0" standalone="no"?>
<!DOCTYPE svg PUBLIC "-//W3C//DTD SVG 20010904//EN"
 "http://www.w3.org/TR/2001/REC-SVG-20010904/DTD/svg10.dtd">
<svg version="1.0" xmlns="http://www.w3.org/2000/svg"
 width="1279.000000pt" height="1478.000000pt" viewBox="0 0 1279.000000 1478.000000"
 preserveAspectRatio="xMidYMid meet">
<metadata>
Created by potrace 1.16, written by Peter Selinger 2001-2019
</metadata>
<g transform="translate(0.000000,1478.000000) scale(0.100000,-0.100000)"
fill="#000000" stroke="none">
<path d="M4118 14256 c-8 -7 -24 -17 -36 -20 -12 -4 -22 -12 -22 -17 0 -5 -5
-9 -11 -9 -6 0 -25 -14 -42 -32 -31 -30 -32 -34 -30 -111 1 -72 22 -186 43
-242 4 -11 16 -49 25 -85 18 -67 41 -140 55 -175 5 -11 16 -45 26 -75 9 -30
23 -69 31 -87 7 -17 13 -38 13 -47 0 -9 5 -16 10 -16 6 0 10 -8 10 -17 0 -20
32 -108 43 -119 4 -4 7 -14 7 -22 0 -8 6 -28 14 -45 7 -18 19 -48 26 -67 7
-19 19 -48 25 -65 69 -164 68 -162 77 -350 5 -99 10 -425 13 -725 6 -700 30
-6146 30 -6640 -1 -626 -25 -2193 -35 -2220 -5 -14 -11 -101 -14 -195 -8 -248
-47 -678 -66 -720 -5 -11 -11 -38 -14 -60 -6 -49 -29 -151 -51 -225 -9 -30
-20 -68 -25 -85 -37 -125 -38 -126 -73 -205 -91 -208 -194 -411 -209 -418 -5
-2 -8 -10 -8 -17 0 -8 -6 -20 -13 -27 -6 -7 -21 -30 -32 -50 -11 -21 -23 -38
-27 -38 -5 0 -8 -5 -8 -10 0 -9 -41 -66 -141 -195 -27 -35 -95 -102 -145 -144
-16 -13 -43 -36 -60 -50 -17 -14 -41 -33 -54 -41 -13 -8 -35 -25 -49 -38 -14
-12 -71 -54 -126 -92 -55 -38 -105 -74 -112 -80 -7 -5 -15 -10 -18 -10 -6 0
-86 -60 -95 -71 -3 -4 -15 -9 -27 -13 -13 -4 -23 -12 -23 -17 0 -5 -7 -9 -15
-9 -8 0 -15 -4 -15 -9 0 -5 -10 -13 -22 -17 -12 -3 -26 -10 -32 -15 -51 -41
-73 -57 -88 -62 -10 -3 -18 -11 -18 -16 0 -5 -11 -12 -25 -15 -14 -4 -25 -11
-25 -16 0 -6 -7 -10 -15 -10 -8 0 -15 -4 -15 -10 0 -5 -11 -12 -25 -16 -14 -3
-25 -9 -25 -13 0 -3 -16 -15 -35 -25 -19 -11 -35 -23 -35 -28 0 -14 367 -10
382 5 7 7 26 21 43 31 16 11 34 23 40 28 5 4 30 24 55 43 25 20 56 44 68 55
13 11 26 20 29 20 3 0 22 15 43 33 20 17 66 54 101 82 73 57 97 77 148 124 20
18 56 49 80 70 113 92 431 424 431 449 0 6 3 12 8 14 10 4 72 84 72 92 0 4 11
24 25 44 14 20 25 45 25 54 0 10 4 18 9 18 5 0 13 14 16 32 4 17 15 46 25 63
10 17 21 47 25 66 4 19 10 36 14 39 3 3 14 32 25 65 10 33 22 68 27 78 5 9 12
38 16 62 3 25 10 45 14 45 5 0 9 11 9 24 0 14 4 27 9 31 6 3 13 26 17 50 3 25
10 45 14 45 4 0 10 18 14 40 3 23 10 49 15 58 18 33 41 103 41 122 0 11 4 20
9 20 5 0 12 22 16 50 4 27 11 50 16 50 5 0 9 8 9 19 0 10 7 32 15 47 8 16 15
36 15 44 0 8 7 23 14 32 11 15 14 -4 19 -129 4 -126 8 -149 23 -160 10 -7 21
-13 26 -13 15 0 48 44 48 65 0 11 6 27 12 34 18 17 18 642 0 663 -41 50 -68
2793 -71 7211 0 1523 -5 2594 -10 2605 -5 9 -17 46 -26 82 -9 36 -21 72 -25
81 -5 9 -11 37 -15 63 -4 25 -11 49 -16 52 -5 3 -9 16 -9 30 0 13 -4 24 -9 24
-5 0 -12 25 -16 55 -3 30 -10 55 -15 55 -4 0 -11 22 -15 50 -4 27 -11 52 -16
56 -5 3 -9 16 -9 29 0 13 -4 26 -9 29 -4 3 -11 29 -15 57 -4 28 -11 58 -16 67
-9 17 -27 84 -37 135 -3 15 -9 27 -13 27 -4 0 -11 25 -15 57 -4 31 -10 63 -15
72 -10 21 -40 151 -40 174 0 9 -4 17 -9 17 -5 0 -12 30 -16 68 -4 37 -11 72
-17 79 -5 6 -8 24 -6 40 3 27 5 28 51 26 26 -1 54 -6 61 -12 7 -6 34 -14 60
-17 25 -4 46 -11 46 -15 0 -5 9 -9 19 -9 11 0 22 -4 25 -9 4 -5 24 -12 46 -16
22 -4 42 -11 46 -16 3 -5 12 -9 21 -9 14 0 66 -20 105 -41 9 -5 35 -12 58 -15
22 -4 40 -10 40 -14 0 -5 18 -11 40 -15 22 -4 40 -11 40 -16 0 -5 11 -9 24 -9
14 0 27 -4 30 -9 3 -5 23 -12 43 -16 21 -4 43 -10 48 -15 6 -4 24 -10 40 -13
63 -13 140 -32 150 -39 6 -3 47 -9 93 -13 45 -4 82 -11 82 -15 0 -14 272 -23
705 -22 437 0 614 6 650 22 11 4 42 11 69 14 28 4 52 10 55 14 4 5 13 12 21
15 8 4 29 16 45 27 49 31 87 50 102 50 7 0 13 4 13 9 0 5 25 12 55 16 30 3 57
11 60 16 4 5 14 9 23 9 9 0 30 7 46 15 15 8 35 15 42 15 8 0 14 4 14 9 0 5 18
11 40 15 22 3 40 11 40 16 0 6 6 10 14 10 8 0 44 14 79 30 36 17 70 30 76 30
6 0 11 4 11 8 0 4 25 16 55 27 30 10 55 22 55 26 0 4 18 10 40 14 22 4 40 10
40 14 0 11 97 41 114 35 18 -7 23 -74 6 -74 -5 0 -10 -16 -10 -35 0 -19 -4
-43 -10 -53 -5 -9 -14 -39 -20 -67 -26 -119 -32 -141 -40 -160 -9 -21 -13 -38
-36 -155 -37 -188 -54 -302 -54 -376 0 -34 -5 -74 -10 -90 -33 -95 -41 -2543
-26 -7194 9 -2551 25 -3520 61 -3670 9 -36 19 -82 24 -102 10 -45 110 -248
122 -248 5 0 9 -5 9 -11 0 -6 10 -23 23 -38 12 -16 36 -45 52 -66 136 -175
386 -419 641 -627 23 -18 61 -49 84 -68 24 -19 47 -37 52 -38 4 -2 21 -16 36
-30 16 -15 50 -43 76 -62 26 -19 52 -40 59 -46 21 -18 167 -125 302 -221 72
-51 135 -96 140 -100 6 -5 51 -36 100 -68 50 -33 95 -64 102 -70 6 -5 27 -20
45 -33 146 -102 275 -193 285 -202 7 -5 17 -10 23 -10 5 0 10 -3 10 -7 0 -5
18 -19 40 -33 22 -13 40 -28 40 -32 0 -4 7 -8 15 -8 8 0 15 -3 15 -7 0 -5 15
-18 33 -30 31 -21 44 -23 185 -23 84 0 152 3 152 8 0 4 -24 23 -53 42 -28 19
-54 37 -57 40 -3 3 -32 24 -65 46 -136 92 -160 109 -163 117 -2 4 -10 7 -18 7
-8 0 -14 5 -14 10 0 6 -8 14 -17 17 -18 6 -83 52 -93 64 -3 4 -15 9 -27 13
-13 4 -23 12 -23 17 0 5 -7 9 -15 9 -8 0 -15 4 -15 9 0 5 -10 13 -22 17 -13 4
-25 10 -28 13 -3 4 -39 29 -80 56 -41 28 -76 53 -78 58 -2 4 -8 7 -13 7 -6 0
-15 5 -22 10 -24 21 -137 100 -142 100 -3 0 -18 11 -33 25 -15 14 -32 25 -39
25 -7 0 -13 5 -13 10 0 6 -8 14 -17 17 -10 4 -29 17 -43 30 -14 13 -28 23 -32
23 -5 0 -16 8 -26 17 -10 10 -56 45 -102 78 -46 33 -88 65 -94 70 -6 6 -38 30
-70 55 -33 25 -73 57 -88 72 -16 16 -33 28 -38 28 -5 0 -27 18 -47 40 -21 22
-42 40 -46 40 -4 0 -18 10 -31 23 -12 12 -44 40 -70 62 -66 54 -308 297 -354
354 -20 25 -43 50 -49 54 -7 4 -13 14 -13 22 0 7 -3 15 -8 17 -4 2 -23 23 -42
48 -19 25 -37 47 -40 50 -3 3 -14 22 -24 43 -11 20 -23 37 -28 37 -4 0 -8 5
-8 11 0 13 -61 141 -71 149 -4 3 -10 21 -14 40 -4 19 -11 37 -14 40 -9 6 -41
140 -41 168 0 11 -4 22 -10 24 -15 5 -36 517 -55 1358 -13 551 -27 3555 -27
5805 0 2368 9 3256 32 3279 6 6 10 45 10 87 0 43 4 80 9 83 5 3 12 51 16 106
4 55 11 100 16 100 5 0 9 14 9 31 0 36 29 194 41 224 4 11 11 49 15 85 3 36
10 70 14 75 8 11 13 35 32 165 7 47 16 90 20 96 4 6 10 59 14 117 4 59 11 107
15 107 13 0 11 168 -1 175 -5 3 -10 15 -10 26 0 18 -8 19 -140 19 l-140 0 -52
-40 c-29 -22 -63 -43 -75 -46 -13 -4 -23 -10 -23 -14 0 -5 -10 -12 -22 -16
-13 -3 -35 -15 -49 -25 -14 -10 -37 -21 -52 -24 -15 -4 -27 -11 -27 -15 0 -4
-12 -11 -26 -14 -15 -4 -63 -24 -108 -45 -44 -21 -115 -51 -156 -66 -41 -15
-84 -31 -95 -35 -36 -14 -109 -37 -170 -54 -33 -9 -76 -21 -95 -27 -74 -21
-219 -35 -600 -59 -200 -12 -794 -12 -885 0 -143 20 -220 36 -280 60 -11 4
-67 23 -125 41 -58 18 -109 36 -114 41 -6 4 -16 8 -24 8 -8 0 -30 7 -50 16
-21 9 -52 22 -70 30 -18 8 -39 14 -47 14 -8 0 -15 5 -15 10 0 6 -5 10 -11 10
-12 0 -117 45 -139 60 -8 6 -29 17 -45 24 -17 8 -39 23 -49 35 -17 19 -17 20
1 45 10 13 35 35 55 48 21 13 38 26 38 31 0 4 -78 7 -174 7 -134 0 -178 -3
-188 -14z"/>
<path d="M7111 10148 c-25 -49 2 -3836 29 -3945 5 -23 10 -78 10 -122 0 -47 4
-81 10 -81 6 0 10 -7 10 -15 0 -8 7 -15 15 -15 13 0 15 26 17 168 0 92 1 173
1 180 -1 6 3 12 8 12 6 0 8 184 5 453 -23 2292 -27 2574 -36 2595 -6 13 -10
110 -10 220 0 108 -3 281 -7 385 -5 166 -8 187 -23 187 -9 0 -22 -10 -29 -22z"/>
<path d="M7359 9934 c-12 -15 -14 -249 -13 -1543 0 -1478 4 -1748 28 -1763 25
-17 36 -7 36 31 0 22 5 43 10 46 7 4 10 290 10 825 0 535 -3 821 -10 825 -6 4
-10 222 -11 618 -2 697 -9 969 -25 974 -6 2 -17 -4 -25 -13z"/>
<path d="M6800 6744 c-13 -68 -12 -165 11 -734 21 -555 29 -708 39 -741 5 -20
10 -48 10 -63 0 -40 36 -36 46 6 10 47 -6 1271 -17 1283 -5 5 -9 56 -10 115 0
58 -4 125 -7 150 -6 39 -10 45 -33 48 -25 3 -27 0 -39 -64z"/>
<path d="M7424 5458 c-9 -58 -10 -2204 0 -2246 6 -26 12 -33 29 -30 21 3 22
10 28 113 17 293 3 2063 -16 2168 -10 50 -31 47 -41 -5z"/>
<path d="M6704 2463 c-3 -10 -10 -30 -16 -44 -11 -31 -5 -338 10 -549 14 -175
31 -264 79 -392 20 -55 29 -68 46 -68 39 0 49 43 43 197 -10 255 -16 348 -25
368 -5 11 -12 75 -15 143 -3 67 -10 130 -15 140 -6 9 -13 43 -16 74 -4 32 -11
60 -16 63 -5 4 -9 17 -9 31 0 13 -4 24 -10 24 -5 0 -10 7 -10 15 0 21 -39 19
-46 -2z"/>
<path d="M7017 2043 c-9 -16 13 -380 27 -448 36 -169 34 -163 67 -240 5 -11
17 -43 28 -72 18 -47 52 -114 84 -168 30 -50 166 -234 201 -272 48 -53 86 -59
86 -14 0 17 -4 32 -9 36 -5 3 -12 19 -16 35 -4 17 -11 30 -16 30 -5 0 -9 7 -9
16 0 14 -27 71 -40 84 -3 3 -21 37 -40 75 -19 39 -38 72 -42 73 -5 2 -8 8 -8
13 0 10 -23 62 -60 142 -10 21 -22 51 -25 67 -4 17 -11 32 -16 35 -5 4 -9 15
-9 26 0 10 -4 19 -9 19 -5 0 -12 23 -16 50 -4 28 -10 50 -15 50 -4 0 -10 22
-14 50 -4 27 -11 52 -16 55 -6 3 -10 17 -10 30 0 13 -4 26 -9 29 -5 4 -12 30
-16 59 -4 28 -11 57 -15 62 -4 6 -11 30 -15 55 -4 25 -11 50 -15 55 -5 6 -10
23 -12 40 -3 28 -30 47 -41 28z"/>
<path d="M4712 1719 c-7 -11 -15 -44 -18 -72 -3 -29 -9 -61 -14 -72 -5 -11
-11 -49 -14 -85 -9 -97 -43 -267 -65 -325 -5 -11 -16 -47 -26 -80 -9 -33 -21
-69 -25 -80 -5 -11 -20 -56 -35 -100 -15 -44 -33 -93 -40 -110 -31 -76 -38
-93 -56 -150 -11 -33 -25 -69 -30 -81 -6 -11 -9 -38 -7 -60 3 -34 7 -39 29
-42 20 -2 32 4 48 25 11 15 24 33 28 38 16 20 93 190 93 204 0 5 7 22 15 37 8
16 15 36 15 44 0 9 4 20 8 25 5 6 17 37 26 70 10 33 22 67 26 76 5 9 11 37 15
63 4 25 11 46 16 46 5 0 9 11 9 24 0 14 4 28 10 31 5 3 12 28 16 56 4 27 10
52 15 54 4 3 11 30 14 60 4 30 11 55 15 55 4 0 10 15 13 33 3 17 10 52 16 77
5 25 10 64 11 88 0 23 5 42 10 42 16 0 11 78 -6 105 -22 33 -92 36 -112 4z"/>
<path d="M7767 1543 c-20 -19 2 -105 49 -189 39 -71 129 -206 167 -251 17 -22
48 -59 67 -84 56 -71 200 -212 265 -260 33 -24 62 -47 63 -51 6 -14 43 -8 49
8 9 25 -17 62 -120 168 -54 56 -115 121 -135 146 -21 25 -45 54 -55 65 -10 11
-39 52 -65 90 -26 39 -49 72 -52 75 -10 10 -31 45 -36 63 -4 9 -10 17 -15 17
-5 0 -9 6 -9 14 0 8 -6 21 -12 28 -7 7 -22 30 -32 51 -11 20 -23 37 -28 37 -4
0 -8 6 -8 14 0 39 -69 83 -93 59z"/>
<path d="M7444 1473 c7 -58 21 -113 37 -145 5 -10 9 -25 9 -35 0 -25 108 -236
136 -266 13 -14 24 -28 24 -31 0 -14 120 -126 134 -126 27 0 18 26 -34 111
-27 44 -50 84 -50 89 0 5 -6 15 -13 22 -6 7 -21 32 -32 55 -11 24 -23 43 -27
43 -5 0 -8 9 -8 19 0 11 -13 46 -30 78 -16 31 -30 63 -30 69 0 6 -6 24 -14 40
-7 16 -24 53 -37 81 -19 42 -29 53 -48 53 -23 0 -24 -2 -17 -57z"/>
<path d="M4426 1463 c-3 -10 -14 -31 -24 -48 -10 -16 -33 -66 -51 -110 -18
-44 -36 -89 -40 -100 -26 -63 -34 -85 -52 -140 -11 -33 -24 -69 -29 -80 -40
-95 -54 -205 -25 -205 8 0 30 24 48 53 30 47 45 78 79 157 6 14 17 37 24 52 8
14 14 36 14 47 0 12 4 21 9 21 5 0 13 14 16 32 4 18 11 39 15 48 24 46 40 91
40 112 0 13 5 29 11 35 6 6 14 41 16 77 6 65 5 66 -19 66 -16 0 -28 -7 -32
-17z"/>
<path d="M4956 1047 c-15 -19 -26 -41 -26 -50 0 -8 -3 -17 -7 -19 -14 -6 -73
-142 -73 -168 0 -10 -3 -20 -7 -22 -5 -2 -23 -50 -42 -108 -19 -58 -37 -114
-41 -125 -7 -20 -21 -67 -55 -180 -10 -33 -21 -69 -25 -80 -12 -32 -39 -137
-45 -178 -18 -114 57 -100 115 22 12 25 30 63 41 84 10 22 19 44 19 50 0 7 6
24 14 39 8 15 17 41 21 59 4 18 16 48 27 67 10 18 21 54 25 78 3 24 10 44 14
44 5 0 9 7 9 17 0 19 29 121 41 145 5 9 12 35 15 58 4 22 10 40 15 40 5 0 9 7
9 16 0 18 28 108 41 136 5 10 9 38 9 63 0 45 0 45 -34 45 -28 0 -40 -7 -60
-33z"/>
</g>
</svg>
